<svg width="36" height="37" viewBox="0 0 36 37" fill="none" xmlns="http://www.w3.org/2000/svg">
<g clip-path="url(#clip0_2990_38189)">
<path d="M31.5 0.0117188H4.5C2 0.0117188 0 2.01172 0 4.51172V31.5117C0 34.0117 2 36.0117 4.5 36.0117H31.5C34 36.0117 36 34.0117 36 31.5117V4.51172C36 2.01172 34 0.0117188 31.5 0.0117188Z" fill="#3B5999"/>
<path d="M24.7996 18.0125V13.5125C24.7996 12.3125 25.7996 12.4125 27.0996 12.4125H29.3996V6.8125H24.8996C21.1996 6.8125 18.0996 9.8125 18.0996 13.6125V18.0125H13.5996V23.6125H17.9996V36.0125H24.7996V23.6125H28.1996L30.4996 18.0125H24.7996Z" fill="white"/>
</g>
<defs>
<clipPath id="clip0_2990_38189">
<rect width="36" height="36" fill="white" transform="translate(0 0.0117188)"/>
</clipPath>
</defs>
</svg>
