<svg width="36" height="37" viewBox="0 0 36 37" fill="none" xmlns="http://www.w3.org/2000/svg">
<g clip-path="url(#clip0_2990_38185)">
<path d="M2.29972 2.51072C-0.500283 5.41072 -0.000282578 8.51072 -0.000282578 18.0107C-0.000282578 25.7107 -1.00028 33.9107 5.89972 35.6107C8.09972 36.2107 27.9997 36.2107 30.1997 35.6107C33.1997 34.8107 35.5997 32.4107 35.8997 28.2107V7.91072C35.4997 3.41072 32.7997 0.810722 29.0997 0.310722C28.2997 0.210722 28.0997 0.110722 23.7997 0.110722C8.69972 0.110722 5.39972 -0.589278 2.29972 2.51072Z" fill="url(#paint0_linear_2990_38185)"/>
<path d="M18.0989 4.80996C12.6989 4.80996 7.49892 4.30996 5.49892 9.40996C4.69892 11.51 4.79892 14.21 4.79892 18.11C4.79892 21.51 4.69892 24.71 5.49892 26.81C7.49892 31.91 12.6989 31.41 18.0989 31.41C23.2989 31.41 28.6989 31.91 30.6989 26.81C31.4989 24.71 31.3989 22.01 31.3989 18.11C31.3989 12.91 31.6989 9.60996 29.1989 7.10996C26.4989 4.40996 23.0989 4.80996 18.0989 4.80996ZM16.8989 7.10996C28.1989 7.10996 29.6989 5.80996 28.8989 23.31C28.5989 29.51 23.8989 28.81 18.0989 28.81C7.49892 28.91 7.19892 28.61 7.19892 18.01C7.19892 7.30996 7.99892 7.10996 16.8989 7.10996ZM25.0989 9.30996C24.1989 9.30996 23.4989 10.01 23.4989 10.91C23.4989 11.81 24.1989 12.51 25.0989 12.51C25.9989 12.51 26.6989 11.81 26.6989 10.91C26.6989 10.11 25.9989 9.30996 25.0989 9.30996ZM18.0989 11.21C14.2989 11.21 11.2989 14.21 11.2989 18.01C11.2989 21.81 14.2989 24.81 18.0989 24.81C21.8989 24.81 24.8989 21.81 24.8989 18.01C24.8989 14.21 21.7989 11.21 18.0989 11.21ZM18.0989 13.61C23.8989 13.61 23.8989 22.41 18.0989 22.41C12.1989 22.41 12.1989 13.61 18.0989 13.61Z" fill="white"/>
</g>
<defs>
<linearGradient id="paint0_linear_2990_38185" x1="2.43872" y1="33.6677" x2="35.7909" y2="4.82351" gradientUnits="userSpaceOnUse">
<stop stop-color="#FFDD55"/>
<stop offset="0.5" stop-color="#FF543E"/>
<stop offset="1" stop-color="#C837AB"/>
</linearGradient>
<clipPath id="clip0_2990_38185">
<rect width="36" height="36" fill="white" transform="translate(0 0.0117188)"/>
</clipPath>
</defs>
</svg>
