<svg width="36" height="36" viewBox="0 0 36 36" fill="none" xmlns="http://www.w3.org/2000/svg">
<circle cx="18" cy="18" r="18" fill="url(#paint0_radial_2973_28131)"/>
<path d="M19.5758 24.5395C19.5758 24.7207 19.5758 24.9623 19.5758 25.1436C19.5758 26.7142 18.3676 27.862 16.7969 27.6204C13.8368 27.1975 11.7224 25.6268 10.635 22.848C9.54763 20.0691 10.0913 17.4714 12.0245 15.1758C13.4743 13.4843 15.4075 12.6385 17.6427 12.5781C18.1864 12.5781 18.7301 12.6385 19.2738 12.7594C19.5154 12.8198 19.6362 12.9406 19.6362 13.1822C19.6362 13.3635 19.6362 13.4843 19.6362 13.6655C19.6362 13.8468 19.5758 13.9676 19.3946 14.0884C18.9717 14.2092 18.7301 14.5113 18.7301 14.9341C18.7301 15.357 18.9717 15.6591 19.3946 15.7799C19.5154 15.8403 19.6362 15.8403 19.6362 15.9611C19.6966 16.384 19.6966 16.8069 19.6362 17.2902C19.6362 17.4714 19.3946 17.3506 19.3342 17.2902C18.6697 17.0485 18.0051 16.9277 17.2802 17.0485C15.9512 17.3506 14.9846 18.1963 14.6825 19.5254C14.3201 20.8544 14.6825 22.0626 15.7699 22.9084C16.8573 23.8145 18.0655 23.9958 19.3342 23.4521C19.6362 23.3312 19.6966 23.3916 19.6966 23.6937C19.5758 23.9958 19.5758 24.2374 19.5758 24.5395Z" fill="white"/>
<path d="M18.25 27.6815C18.3708 27.621 18.4312 27.5606 18.4916 27.5606C19.6394 27.1378 20.1831 26.292 20.1831 25.0838C20.1831 20.7946 20.1831 16.5055 20.1831 12.2163C20.1831 11.1893 20.1831 10.1623 20.1831 9.13536C20.1831 8.77289 20.2436 8.59166 20.6664 8.65207C20.8477 8.65207 20.9685 8.65207 21.1497 8.65207C21.3309 8.65207 21.4518 8.71248 21.5726 8.89372C21.6934 9.31659 21.9955 9.55823 22.4183 9.55823C22.8412 9.55823 23.1433 9.31659 23.2641 8.89372C23.2641 8.65207 23.4453 8.65207 23.6266 8.65207C24.6535 8.65207 24.4723 8.53125 24.4723 9.49782C24.4723 13.4849 24.4119 17.5325 24.4723 21.5196C24.4723 23.3923 23.8078 24.8422 22.3579 25.99C21.2101 26.8961 19.8811 27.4398 18.4312 27.621C18.4312 27.6815 18.3708 27.6815 18.25 27.6815Z" fill="white"/>
<defs>
<radialGradient id="paint0_radial_2973_28131" cx="0" cy="0" r="1" gradientUnits="userSpaceOnUse" gradientTransform="translate(2.16 9.36) rotate(32.6192) scale(42.7416)">
<stop stop-color="#FFBE0F"/>
<stop offset="0.429484" stop-color="#FFBE0F"/>
<stop offset="1" stop-color="#F6851D"/>
<stop offset="1" stop-color="#FFBE0F" stop-opacity="0"/>
</radialGradient>
</defs>
</svg>
