<svg width="36" height="36" viewBox="0 0 36 36" fill="none" xmlns="http://www.w3.org/2000/svg">
<circle cx="18" cy="18" r="18" fill="url(#paint0_radial_2973_32590)"/>
<path d="M25.4088 17.7905C23.8542 13.8093 18.3188 13.5946 19.6556 7.80816C19.7546 7.37881 19.2892 7.04704 18.9129 7.27147C15.3184 9.35966 12.7339 13.5458 14.9025 19.0297C15.0807 19.4786 14.546 19.8982 14.1598 19.6054C12.3675 18.2686 12.1794 16.3463 12.3378 14.9704C12.3972 14.463 11.7239 14.2191 11.4367 14.6387C10.7633 15.6535 10.0801 17.2928 10.0801 19.7616C10.4564 25.226 15.1401 26.9043 16.8235 27.119C19.2298 27.4215 21.8341 26.9824 23.7056 25.2943C25.7653 23.411 26.5179 20.4056 25.4088 17.7905ZM16.2195 22.6987C17.6454 22.3572 18.3782 21.3423 18.5762 20.4446C18.903 19.0492 17.6256 17.6831 18.4871 15.4779C18.8139 17.3026 21.7252 18.4443 21.7252 20.4349C21.8044 22.9036 19.0912 25.0211 16.2195 22.6987Z" fill="white"/>
<defs>
<radialGradient id="paint0_radial_2973_32590" cx="0" cy="0" r="1" gradientUnits="userSpaceOnUse" gradientTransform="translate(2.16 9.36) rotate(32.6192) scale(42.7416)">
<stop stop-color="#FF0000"/>
<stop offset="1" stop-color="#E99141"/>
</radialGradient>
</defs>
</svg>
