<svg width="24" height="24" viewBox="0 0 24 24" fill="none" xmlns="http://www.w3.org/2000/svg">
<g clip-path="url(#clip0_2943_41391)">
<path d="M21.2205 7.40214L14.9514 6.82071L12.4611 1.03806C12.2868 0.633148 11.7127 0.633148 11.5383 1.03806L9.04806 6.82066L2.77893 7.40214C2.33995 7.44283 2.16257 7.98883 2.49375 8.27979L7.22382 12.4351L5.83955 18.5771C5.74261 19.0072 6.2071 19.3446 6.58613 19.1195L11.9997 15.905L17.4133 19.1195C17.7924 19.3446 18.2568 19.0072 18.1599 18.5771L16.7756 12.4351L21.5057 8.27979C21.8369 7.98883 21.6595 7.44283 21.2205 7.40214Z" fill="#FFDC64"/>
<path d="M5.59162 0.841484C5.91122 1.28539 6.81328 3.1918 7.329 4.30283C7.41009 4.47749 7.19095 4.63527 7.05103 4.50294C6.16101 3.66144 4.63922 2.20119 4.31962 1.75724C4.06673 1.406 4.14647 0.91625 4.49775 0.663358C4.84898 0.410467 5.33873 0.490249 5.59162 0.841484Z" fill="#FFF082"/>
<path d="M18.4072 0.841484C18.0876 1.28539 17.1856 3.1918 16.6699 4.30283C16.5888 4.47749 16.8079 4.63527 16.9478 4.50294C17.8378 3.66144 19.3596 2.20114 19.6792 1.75724C19.9321 1.406 19.8524 0.91625 19.5011 0.663358C19.1499 0.410467 18.6601 0.490249 18.4072 0.841484Z" fill="#FFF082"/>
<path d="M23.4601 13.859C22.9401 13.6894 20.8497 13.4093 19.6345 13.2555C19.4435 13.2313 19.3598 13.4881 19.5283 13.5811C20.6005 14.1734 22.4541 15.1795 22.9741 15.3491C23.3856 15.4833 23.8279 15.2586 23.9621 14.8471C24.0963 14.4355 23.8716 13.9932 23.4601 13.859Z" fill="#FFF082"/>
<path d="M0.54087 13.859C1.0609 13.6894 3.1513 13.4093 4.36644 13.2555C4.55746 13.2313 4.64118 13.4881 4.47266 13.5811C3.40049 14.1734 1.5469 15.1795 1.02687 15.3491C0.615402 15.4833 0.173042 15.2586 0.0388382 14.8471C-0.0953652 14.4355 0.129401 13.9932 0.54087 13.859Z" fill="#FFF082"/>
<path d="M11.2402 22.7043C11.2402 22.1573 11.622 20.0831 11.8527 18.8801C11.8889 18.691 12.1589 18.691 12.1952 18.8801C12.4258 20.0831 12.8076 22.1573 12.8076 22.7043C12.8076 23.1371 12.4567 23.4879 12.0239 23.4879C11.5911 23.488 11.2402 23.1371 11.2402 22.7043Z" fill="#FFF082"/>
<path d="M13.3667 3.14087L12.4611 1.03806C12.2867 0.633148 11.7126 0.633148 11.5383 1.03806L9.04801 6.82066L2.77893 7.40215C2.33995 7.44283 2.16257 7.98883 2.49375 8.27979L7.22382 12.4351L5.83955 18.5771C5.74261 19.0072 6.20709 19.3446 6.58613 19.1195L7.30664 18.6917C8.48785 11.0454 11.8086 5.4325 13.3667 3.14087Z" fill="#FFC850"/>
</g>
<defs>
<clipPath id="clip0_2943_41391">
<rect width="24" height="24" fill="white"/>
</clipPath>
</defs>
</svg>
