<svg width="28" height="37" viewBox="0 0 28 37" fill="none" xmlns="http://www.w3.org/2000/svg">
<path d="M27.1611 0.0117188V14.2341V25.6486C27.1611 25.6747 27.1611 25.7008 27.1611 25.7269C27.1024 26.5628 26.9459 27.3856 26.6981 28.1822L26.5351 28.6132L26.522 28.6589C26.2351 29.3642 25.8438 30.0302 25.3743 30.631C25.3352 30.6832 25.2895 30.7355 25.2504 30.7942C22.8376 33.7654 19.3227 35.633 15.5144 35.9791C15.3774 35.9791 15.2339 35.9791 15.097 35.9791H14.9014C15.3448 35.9072 15.7817 35.7832 16.1926 35.6003L16.2708 35.5677C17.1316 35.1759 17.8554 34.5359 18.3445 33.7262C18.5336 33.4128 18.6836 33.0797 18.7945 32.7271V32.7206C18.7945 32.7141 18.7945 32.7075 18.7945 32.7075C18.8467 32.5573 18.8793 32.4071 18.9119 32.2569C18.9119 32.2439 18.9119 32.2308 18.9119 32.2178V32.2112C18.9314 32.0872 18.9445 31.9696 18.9575 31.8456C18.9706 31.6039 18.9706 30.8726 18.9706 30.8726V30.8073V17.2967V8.37014V0.54065V0.0117188H21.3247C21.3312 0.971631 22.1137 1.7487 23.0724 1.7487C24.031 1.75523 24.82 0.978161 24.8265 0.0117188H27.1611Z" fill="#FFBE0F"/>
<path d="M16.1072 11.8882C16.1072 12.8546 16.8898 13.6382 17.8549 13.6382H17.8744V16.6224C17.1636 16.198 16.3746 15.9237 15.5529 15.7997C15.2399 15.7539 14.9269 15.7344 14.6139 15.7344C14.5226 15.7344 14.3335 15.7344 14.3269 15.7344C14.1378 15.7344 13.9487 15.7605 13.7661 15.7801C12.1424 15.9956 10.6621 16.8249 9.6252 18.0982C9.58608 18.1439 9.54695 18.1962 9.50782 18.2419C9.43609 18.3398 9.35784 18.4378 9.29263 18.5423C9.26002 18.5945 9.22089 18.6467 9.18829 18.7055C9.15568 18.7643 9.12308 18.81 9.09047 18.8688C9.05786 18.9275 9.02526 18.9732 8.99917 19.032C8.96657 19.0843 8.93396 19.143 8.90788 19.1953C8.88179 19.241 8.86223 19.2802 8.84267 19.3259C8.8231 19.3716 8.80354 19.4108 8.78398 19.4565C8.76441 19.5022 8.75137 19.5218 8.73833 19.5544L8.70572 19.6328C8.67964 19.6915 8.65355 19.7568 8.62747 19.8156C8.60139 19.8809 8.59486 19.9005 8.58182 19.9462C8.56878 19.9919 8.54922 20.0442 8.52965 20.0964C8.51009 20.1421 8.49705 20.1944 8.484 20.2466C8.47096 20.2988 8.46444 20.325 8.4514 20.3576C8.4514 20.3641 8.4514 20.3707 8.4514 20.3772C8.43836 20.4164 8.43184 20.449 8.41879 20.4882C8.41227 20.5274 8.40575 20.547 8.39923 20.5731C8.39271 20.5862 8.39271 20.5927 8.39271 20.6057C8.39271 20.6319 8.37967 20.6515 8.37314 20.6776C8.36662 20.6972 8.35358 20.7625 8.34706 20.8082C8.34054 20.8474 8.33402 20.88 8.3275 20.9192C8.32098 20.9518 8.31446 20.9845 8.30793 21.0171C8.30793 21.0498 8.29489 21.0824 8.28837 21.1151C8.28185 21.1477 8.27533 21.2 8.26881 21.2457C8.26229 21.2914 8.26229 21.3045 8.25576 21.3371C8.25576 21.3698 8.24924 21.4089 8.24272 21.4416C8.2362 21.4742 8.24272 21.5134 8.22968 21.5526L8.22316 21.6506C8.22316 21.6506 8.22316 21.6571 8.22316 21.6636C8.22316 21.6963 8.22316 21.7354 8.22316 21.7681C8.22316 21.7681 8.22316 21.7746 8.22316 21.7812C8.22316 21.8203 8.22316 21.866 8.22316 21.9052C8.22316 21.9118 8.22316 21.9183 8.22316 21.9248C8.22316 22.0032 8.22316 22.0881 8.22316 22.1534C8.22316 25.7057 11.099 28.5854 14.6465 28.5854C15.3964 28.5854 16.1333 28.4548 16.8376 28.2002C16.9289 28.1675 17.0202 28.1349 17.105 28.0957C17.3723 27.9847 17.6266 27.8541 17.881 27.7104V31.2431C17.881 31.3019 17.881 31.3607 17.881 31.4195C17.881 32.1835 17.6919 32.9344 17.3267 33.607C17.3006 33.6593 17.268 33.718 17.2354 33.7703C16.9224 34.2992 16.505 34.7563 16.0159 35.122L15.8659 35.2265C15.4551 35.5072 15.0051 35.7162 14.5291 35.8468C14.1965 35.9382 13.8509 35.997 13.4988 36.0101C8.05361 35.7227 3.24753 32.3467 1.12816 27.3186C1.09555 27.2402 1.06295 27.1619 1.03034 27.0835C0.997735 27.0052 0.965129 26.9203 0.932523 26.8419C0.893396 26.7309 0.854269 26.6264 0.815143 26.5154L0.776016 26.3979C0.756452 26.3456 0.74341 26.2934 0.723847 26.2346C0.710804 26.1759 0.691241 26.1301 0.671678 26.0714L0.62603 25.9081C0.208677 24.5695 0 23.1655 0 21.755C0 13.8798 6.37115 7.5 14.2357 7.5C15.4681 7.5 16.6941 7.65672 17.8875 7.97016V10.1055H17.8679C16.9028 10.0989 16.1137 10.876 16.1072 11.8425C16.1072 11.8621 16.1072 11.8751 16.1072 11.8882Z" fill="#FFBE0F"/>
</svg>
